<svg width="120" height="80" viewBox="0 0 120 80" fill="none" xmlns="http://www.w3.org/2000/svg">
  <!-- Gun outline -->
  <rect x="25" y="15" width="80" height="10" fill="#6B6B6B" />
  <rect x="25" y="25" width="80" height="15" fill="#444444" />
  <rect x="25" y="40" width="30" height="20" fill="#333333" />
  <rect x="40" y="42" width="10" height="18" fill="#222222" />
  
  <!-- Grip -->
  <rect x="25" y="60" width="30" height="20" fill="#222222" />
  <rect x="30" y="70" width="20" height="10" fill="#1A1A1A" />
  
  <!-- Sight dots -->
  <rect x="30" y="15" width="4" height="2" fill="#000000" />
  <rect x="90" y="15" width="4" height="2" fill="#000000" />
  
  <!-- Slide rail -->
  <rect x="25" y="15" width="80" height="3" fill="#888888" />
  
  <!-- Dark areas -->
  <rect x="40" y="25" width="10" height="15" fill="#333333" />
  <rect x="80" y="25" width="10" height="15" fill="#333333" />
  
  <!-- Trigger -->
  <rect x="38" y="50" width="8" height="5" fill="#111111" />
  
  <!-- Trigger guard -->
  <rect x="35" y="55" width="20" height="5" fill="#2A2A2A" />
  
  <!-- Magazine -->
  <rect x="38" y="65" width="10" height="15" fill="#333333" />
  
  <!-- Slide cutout -->
  <rect x="50" y="25" width="20" height="5" fill="#333333" />
  
  <!-- Handle detail -->
  <rect x="30" y="65" width="20" height="2" fill="#1A1A1A" />
  <rect x="30" y="70" width="20" height="2" fill="#1A1A1A" />
  <rect x="30" y="75" width="20" height="2" fill="#1A1A1A" />
</svg> 